M48
;DRILL file {KiCad (5.0.0)} date 12/19/18 08:46:57
;FORMAT={-:-/ absolute / inch / decimal}
FMAT,2
INCH,TZ
T1C0.0300
T2C0.0350
T3C0.1598
%
G90
G05
M72
T1
X4.77Y-2.51
X4.77Y-2.61
X4.77Y-2.71
X4.77Y-2.81
X4.77Y-2.91
X4.77Y-3.01
X4.77Y-3.11
X4.77Y-3.21
X4.77Y-3.31
X4.77Y-3.41
X4.77Y-3.51
X4.77Y-3.61
X4.77Y-3.71
X4.77Y-3.81
X4.77Y-3.91
X5.63Y-2.51
X5.63Y-2.61
X5.63Y-2.71
X5.63Y-2.81
X5.63Y-2.91
X5.63Y-3.01
X5.63Y-3.11
X5.63Y-3.21
X5.63Y-3.31
X5.63Y-3.41
X5.63Y-3.51
X5.63Y-3.61
X5.63Y-3.71
X5.63Y-3.81
X5.63Y-3.91
X5.36Y-2.43
X5.46Y-2.43
T2
X4.94Y-2.14
X5.04Y-2.14
X5.14Y-2.14
T3
X5.02Y-4.279
X5.335Y-4.279
T0
M30
