G04 #@! TF.GenerationSoftware,KiCad,Pcbnew,(5.0.0)*
G04 #@! TF.CreationDate,2018-12-19T08:47:06-06:00*
G04 #@! TF.ProjectId,VoltageTransmitter_Hardware,566F6C746167655472616E736D697474,rev?*
G04 #@! TF.SameCoordinates,Original*
G04 #@! TF.FileFunction,Copper,L1,Top,Signal*
G04 #@! TF.FilePolarity,Positive*
%FSLAX46Y46*%
G04 Gerber Fmt 4.6, Leading zero omitted, Abs format (unit mm)*
G04 Created by KiCad (PCBNEW (5.0.0)) date 12/19/18 08:47:06*
%MOMM*%
%LPD*%
G01*
G04 APERTURE LIST*
G04 #@! TA.AperFunction,ComponentPad*
%ADD10C,1.524000*%
G04 #@! TD*
G04 #@! TA.AperFunction,ComponentPad*
%ADD11C,5.080000*%
G04 #@! TD*
G04 #@! TA.AperFunction,Conductor*
%ADD12C,0.254000*%
G04 #@! TD*
G04 APERTURE END LIST*
D10*
G04 #@! TO.P,U2,1*
G04 #@! TO.N,Din*
X143002000Y-99314000D03*
G04 #@! TO.P,U2,2*
G04 #@! TO.N,Net-(U2-Pad2)*
X143002000Y-96774000D03*
G04 #@! TO.P,U2,3*
G04 #@! TO.N,Net-(U2-Pad3)*
X143002000Y-94234000D03*
G04 #@! TO.P,U2,4*
G04 #@! TO.N,Net-(U2-Pad4)*
X143002000Y-91694000D03*
G04 #@! TO.P,U2,5*
G04 #@! TO.N,Net-(U2-Pad5)*
X143002000Y-89154000D03*
G04 #@! TO.P,U2,6*
G04 #@! TO.N,Net-(U2-Pad6)*
X143002000Y-86614000D03*
G04 #@! TO.P,U2,7*
G04 #@! TO.N,Net-(U2-Pad7)*
X143002000Y-84074000D03*
G04 #@! TO.P,U2,8*
G04 #@! TO.N,Net-(U2-Pad8)*
X143002000Y-81534000D03*
G04 #@! TO.P,U2,9*
G04 #@! TO.N,Net-(U2-Pad9)*
X143002000Y-78994000D03*
G04 #@! TO.P,U2,10*
G04 #@! TO.N,GND*
X143002000Y-76454000D03*
G04 #@! TO.P,U2,11*
G04 #@! TO.N,+3V3*
X143002000Y-73914000D03*
G04 #@! TO.P,U2,12*
G04 #@! TO.N,Net-(U2-Pad12)*
X143002000Y-71374000D03*
G04 #@! TO.P,U2,13*
G04 #@! TO.N,Net-(U2-Pad13)*
X143002000Y-68834000D03*
G04 #@! TO.P,U2,14*
G04 #@! TO.N,Net-(U2-Pad14)*
X143002000Y-66294000D03*
G04 #@! TO.P,U2,15*
G04 #@! TO.N,Net-(U2-Pad15)*
X143002000Y-63754000D03*
G04 #@! TO.P,U2,16*
G04 #@! TO.N,Net-(U2-Pad16)*
X121158000Y-63754000D03*
G04 #@! TO.P,U2,17*
G04 #@! TO.N,Net-(U2-Pad17)*
X121158000Y-66294000D03*
G04 #@! TO.P,U2,18*
G04 #@! TO.N,Net-(U2-Pad18)*
X121158000Y-68834000D03*
G04 #@! TO.P,U2,19*
G04 #@! TO.N,Net-(U2-Pad19)*
X121158000Y-71374000D03*
G04 #@! TO.P,U2,20*
G04 #@! TO.N,Net-(U2-Pad20)*
X121158000Y-73914000D03*
G04 #@! TO.P,U2,21*
G04 #@! TO.N,Net-(U2-Pad21)*
X121158000Y-76454000D03*
G04 #@! TO.P,U2,22*
G04 #@! TO.N,Net-(U2-Pad22)*
X121158000Y-78994000D03*
G04 #@! TO.P,U2,23*
G04 #@! TO.N,Net-(U2-Pad23)*
X121158000Y-81534000D03*
G04 #@! TO.P,U2,24*
G04 #@! TO.N,GND*
X121158000Y-84074000D03*
G04 #@! TO.P,U2,25*
G04 #@! TO.N,Net-(U2-Pad25)*
X121158000Y-86614000D03*
G04 #@! TO.P,U2,26*
G04 #@! TO.N,Net-(U2-Pad26)*
X121158000Y-89154000D03*
G04 #@! TO.P,U2,27*
G04 #@! TO.N,Net-(U2-Pad27)*
X121158000Y-91694000D03*
G04 #@! TO.P,U2,28*
G04 #@! TO.N,Net-(U2-Pad28)*
X121158000Y-94234000D03*
G04 #@! TO.P,U2,29*
G04 #@! TO.N,Net-(U2-Pad29)*
X121158000Y-96774000D03*
G04 #@! TO.P,U2,30*
G04 #@! TO.N,Net-(U2-Pad30)*
X121158000Y-99314000D03*
G04 #@! TD*
D11*
G04 #@! TO.P,Conn1,1*
G04 #@! TO.N,GND*
X127507000Y-108686600D03*
G04 #@! TO.P,Conn1,2*
G04 #@! TO.N,Net-(Conn1-Pad2)*
X135508000Y-108686600D03*
G04 #@! TD*
D10*
G04 #@! TO.P,Conn2,1*
G04 #@! TO.N,GND*
X138684000Y-61722000D03*
G04 #@! TO.P,Conn2,2*
G04 #@! TO.N,Net-(C1-Pad1)*
X136144000Y-61722000D03*
G04 #@! TD*
G04 #@! TO.P,U1,1*
G04 #@! TO.N,Net-(C1-Pad1)*
X130556000Y-54356000D03*
G04 #@! TO.P,U1,2*
G04 #@! TO.N,GND*
X128016000Y-54356000D03*
G04 #@! TO.P,U1,3*
G04 #@! TO.N,+3V3*
X125476000Y-54356000D03*
G04 #@! TD*
D12*
G04 #@! TO.N,GND*
G36*
X145446839Y-49259263D02*
X145831546Y-49418613D01*
X146161897Y-49672100D01*
X146415387Y-50002455D01*
X146574737Y-50387161D01*
X146635001Y-50844908D01*
X146635000Y-118065100D01*
X146574737Y-118522839D01*
X146415387Y-118907545D01*
X146161897Y-119237900D01*
X145831546Y-119491387D01*
X145446839Y-119650737D01*
X144989100Y-119711000D01*
X119927794Y-119711000D01*
X119345462Y-119643107D01*
X118832021Y-119456737D01*
X118375229Y-119157250D01*
X117999589Y-118760716D01*
X117725242Y-118288393D01*
X117564194Y-117756653D01*
X117525000Y-117317494D01*
X117525000Y-108055053D01*
X132333000Y-108055053D01*
X132333000Y-109318147D01*
X132816365Y-110485093D01*
X133709507Y-111378235D01*
X134876453Y-111861600D01*
X136139547Y-111861600D01*
X137306493Y-111378235D01*
X138199635Y-110485093D01*
X138683000Y-109318147D01*
X138683000Y-108055053D01*
X138199635Y-106888107D01*
X137306493Y-105994965D01*
X136139547Y-105511600D01*
X134876453Y-105511600D01*
X133709507Y-105994965D01*
X132816365Y-106888107D01*
X132333000Y-108055053D01*
X117525000Y-108055053D01*
X117525000Y-86336119D01*
X119761000Y-86336119D01*
X119761000Y-86891881D01*
X119973680Y-87405337D01*
X120366663Y-87798320D01*
X120573513Y-87884000D01*
X120366663Y-87969680D01*
X119973680Y-88362663D01*
X119761000Y-88876119D01*
X119761000Y-89431881D01*
X119973680Y-89945337D01*
X120366663Y-90338320D01*
X120573513Y-90424000D01*
X120366663Y-90509680D01*
X119973680Y-90902663D01*
X119761000Y-91416119D01*
X119761000Y-91971881D01*
X119973680Y-92485337D01*
X120366663Y-92878320D01*
X120573513Y-92964000D01*
X120366663Y-93049680D01*
X119973680Y-93442663D01*
X119761000Y-93956119D01*
X119761000Y-94511881D01*
X119973680Y-95025337D01*
X120366663Y-95418320D01*
X120573513Y-95504000D01*
X120366663Y-95589680D01*
X119973680Y-95982663D01*
X119761000Y-96496119D01*
X119761000Y-97051881D01*
X119973680Y-97565337D01*
X120366663Y-97958320D01*
X120573513Y-98044000D01*
X120366663Y-98129680D01*
X119973680Y-98522663D01*
X119761000Y-99036119D01*
X119761000Y-99591881D01*
X119973680Y-100105337D01*
X120366663Y-100498320D01*
X120880119Y-100711000D01*
X121435881Y-100711000D01*
X121949337Y-100498320D01*
X122342320Y-100105337D01*
X122555000Y-99591881D01*
X122555000Y-99036119D01*
X122342320Y-98522663D01*
X121949337Y-98129680D01*
X121742487Y-98044000D01*
X121949337Y-97958320D01*
X122342320Y-97565337D01*
X122555000Y-97051881D01*
X122555000Y-96496119D01*
X122342320Y-95982663D01*
X121949337Y-95589680D01*
X121742487Y-95504000D01*
X121949337Y-95418320D01*
X122342320Y-95025337D01*
X122555000Y-94511881D01*
X122555000Y-93956119D01*
X122342320Y-93442663D01*
X121949337Y-93049680D01*
X121742487Y-92964000D01*
X121949337Y-92878320D01*
X122342320Y-92485337D01*
X122555000Y-91971881D01*
X122555000Y-91416119D01*
X122342320Y-90902663D01*
X121949337Y-90509680D01*
X121742487Y-90424000D01*
X121949337Y-90338320D01*
X122342320Y-89945337D01*
X122555000Y-89431881D01*
X122555000Y-88876119D01*
X122342320Y-88362663D01*
X121949337Y-87969680D01*
X121742487Y-87884000D01*
X121949337Y-87798320D01*
X122342320Y-87405337D01*
X122555000Y-86891881D01*
X122555000Y-86336119D01*
X122342320Y-85822663D01*
X121949337Y-85429680D01*
X121435881Y-85217000D01*
X120880119Y-85217000D01*
X120366663Y-85429680D01*
X119973680Y-85822663D01*
X119761000Y-86336119D01*
X117525000Y-86336119D01*
X117525000Y-63476119D01*
X119761000Y-63476119D01*
X119761000Y-64031881D01*
X119973680Y-64545337D01*
X120366663Y-64938320D01*
X120573513Y-65024000D01*
X120366663Y-65109680D01*
X119973680Y-65502663D01*
X119761000Y-66016119D01*
X119761000Y-66571881D01*
X119973680Y-67085337D01*
X120366663Y-67478320D01*
X120573513Y-67564000D01*
X120366663Y-67649680D01*
X119973680Y-68042663D01*
X119761000Y-68556119D01*
X119761000Y-69111881D01*
X119973680Y-69625337D01*
X120366663Y-70018320D01*
X120573513Y-70104000D01*
X120366663Y-70189680D01*
X119973680Y-70582663D01*
X119761000Y-71096119D01*
X119761000Y-71651881D01*
X119973680Y-72165337D01*
X120366663Y-72558320D01*
X120573513Y-72644000D01*
X120366663Y-72729680D01*
X119973680Y-73122663D01*
X119761000Y-73636119D01*
X119761000Y-74191881D01*
X119973680Y-74705337D01*
X120366663Y-75098320D01*
X120573513Y-75184000D01*
X120366663Y-75269680D01*
X119973680Y-75662663D01*
X119761000Y-76176119D01*
X119761000Y-76731881D01*
X119973680Y-77245337D01*
X120366663Y-77638320D01*
X120573513Y-77724000D01*
X120366663Y-77809680D01*
X119973680Y-78202663D01*
X119761000Y-78716119D01*
X119761000Y-79271881D01*
X119973680Y-79785337D01*
X120366663Y-80178320D01*
X120573513Y-80264000D01*
X120366663Y-80349680D01*
X119973680Y-80742663D01*
X119761000Y-81256119D01*
X119761000Y-81811881D01*
X119973680Y-82325337D01*
X120366663Y-82718320D01*
X120880119Y-82931000D01*
X121435881Y-82931000D01*
X121949337Y-82718320D01*
X122342320Y-82325337D01*
X122555000Y-81811881D01*
X122555000Y-81256119D01*
X122342320Y-80742663D01*
X121949337Y-80349680D01*
X121742487Y-80264000D01*
X121949337Y-80178320D01*
X122342320Y-79785337D01*
X122555000Y-79271881D01*
X122555000Y-78716119D01*
X141605000Y-78716119D01*
X141605000Y-79271881D01*
X141817680Y-79785337D01*
X142210663Y-80178320D01*
X142417513Y-80264000D01*
X142210663Y-80349680D01*
X141817680Y-80742663D01*
X141605000Y-81256119D01*
X141605000Y-81811881D01*
X141817680Y-82325337D01*
X142210663Y-82718320D01*
X142417513Y-82804000D01*
X142210663Y-82889680D01*
X141817680Y-83282663D01*
X141605000Y-83796119D01*
X141605000Y-84351881D01*
X141817680Y-84865337D01*
X142210663Y-85258320D01*
X142417513Y-85344000D01*
X142210663Y-85429680D01*
X141817680Y-85822663D01*
X141605000Y-86336119D01*
X141605000Y-86891881D01*
X141817680Y-87405337D01*
X142210663Y-87798320D01*
X142417513Y-87884000D01*
X142210663Y-87969680D01*
X141817680Y-88362663D01*
X141605000Y-88876119D01*
X141605000Y-89431881D01*
X141817680Y-89945337D01*
X142210663Y-90338320D01*
X142417513Y-90424000D01*
X142210663Y-90509680D01*
X141817680Y-90902663D01*
X141605000Y-91416119D01*
X141605000Y-91971881D01*
X141817680Y-92485337D01*
X142210663Y-92878320D01*
X142417513Y-92964000D01*
X142210663Y-93049680D01*
X141817680Y-93442663D01*
X141605000Y-93956119D01*
X141605000Y-94511881D01*
X141817680Y-95025337D01*
X142210663Y-95418320D01*
X142417513Y-95504000D01*
X142210663Y-95589680D01*
X141817680Y-95982663D01*
X141605000Y-96496119D01*
X141605000Y-97051881D01*
X141817680Y-97565337D01*
X142210663Y-97958320D01*
X142417513Y-98044000D01*
X142210663Y-98129680D01*
X141817680Y-98522663D01*
X141605000Y-99036119D01*
X141605000Y-99591881D01*
X141817680Y-100105337D01*
X142210663Y-100498320D01*
X142724119Y-100711000D01*
X143279881Y-100711000D01*
X143793337Y-100498320D01*
X144186320Y-100105337D01*
X144399000Y-99591881D01*
X144399000Y-99036119D01*
X144186320Y-98522663D01*
X143793337Y-98129680D01*
X143586487Y-98044000D01*
X143793337Y-97958320D01*
X144186320Y-97565337D01*
X144399000Y-97051881D01*
X144399000Y-96496119D01*
X144186320Y-95982663D01*
X143793337Y-95589680D01*
X143586487Y-95504000D01*
X143793337Y-95418320D01*
X144186320Y-95025337D01*
X144399000Y-94511881D01*
X144399000Y-93956119D01*
X144186320Y-93442663D01*
X143793337Y-93049680D01*
X143586487Y-92964000D01*
X143793337Y-92878320D01*
X144186320Y-92485337D01*
X144399000Y-91971881D01*
X144399000Y-91416119D01*
X144186320Y-90902663D01*
X143793337Y-90509680D01*
X143586487Y-90424000D01*
X143793337Y-90338320D01*
X144186320Y-89945337D01*
X144399000Y-89431881D01*
X144399000Y-88876119D01*
X144186320Y-88362663D01*
X143793337Y-87969680D01*
X143586487Y-87884000D01*
X143793337Y-87798320D01*
X144186320Y-87405337D01*
X144399000Y-86891881D01*
X144399000Y-86336119D01*
X144186320Y-85822663D01*
X143793337Y-85429680D01*
X143586487Y-85344000D01*
X143793337Y-85258320D01*
X144186320Y-84865337D01*
X144399000Y-84351881D01*
X144399000Y-83796119D01*
X144186320Y-83282663D01*
X143793337Y-82889680D01*
X143586487Y-82804000D01*
X143793337Y-82718320D01*
X144186320Y-82325337D01*
X144399000Y-81811881D01*
X144399000Y-81256119D01*
X144186320Y-80742663D01*
X143793337Y-80349680D01*
X143586487Y-80264000D01*
X143793337Y-80178320D01*
X144186320Y-79785337D01*
X144399000Y-79271881D01*
X144399000Y-78716119D01*
X144186320Y-78202663D01*
X143793337Y-77809680D01*
X143279881Y-77597000D01*
X142724119Y-77597000D01*
X142210663Y-77809680D01*
X141817680Y-78202663D01*
X141605000Y-78716119D01*
X122555000Y-78716119D01*
X122342320Y-78202663D01*
X121949337Y-77809680D01*
X121742487Y-77724000D01*
X121949337Y-77638320D01*
X122342320Y-77245337D01*
X122555000Y-76731881D01*
X122555000Y-76176119D01*
X122342320Y-75662663D01*
X121949337Y-75269680D01*
X121742487Y-75184000D01*
X121949337Y-75098320D01*
X122342320Y-74705337D01*
X122555000Y-74191881D01*
X122555000Y-73636119D01*
X122342320Y-73122663D01*
X121949337Y-72729680D01*
X121742487Y-72644000D01*
X121949337Y-72558320D01*
X122342320Y-72165337D01*
X122555000Y-71651881D01*
X122555000Y-71096119D01*
X122342320Y-70582663D01*
X121949337Y-70189680D01*
X121742487Y-70104000D01*
X121949337Y-70018320D01*
X122342320Y-69625337D01*
X122555000Y-69111881D01*
X122555000Y-68556119D01*
X122342320Y-68042663D01*
X121949337Y-67649680D01*
X121742487Y-67564000D01*
X121949337Y-67478320D01*
X122342320Y-67085337D01*
X122555000Y-66571881D01*
X122555000Y-66016119D01*
X122342320Y-65502663D01*
X121949337Y-65109680D01*
X121742487Y-65024000D01*
X121949337Y-64938320D01*
X122342320Y-64545337D01*
X122555000Y-64031881D01*
X122555000Y-63476119D01*
X141605000Y-63476119D01*
X141605000Y-64031881D01*
X141817680Y-64545337D01*
X142210663Y-64938320D01*
X142417513Y-65024000D01*
X142210663Y-65109680D01*
X141817680Y-65502663D01*
X141605000Y-66016119D01*
X141605000Y-66571881D01*
X141817680Y-67085337D01*
X142210663Y-67478320D01*
X142417513Y-67564000D01*
X142210663Y-67649680D01*
X141817680Y-68042663D01*
X141605000Y-68556119D01*
X141605000Y-69111881D01*
X141817680Y-69625337D01*
X142210663Y-70018320D01*
X142417513Y-70104000D01*
X142210663Y-70189680D01*
X141817680Y-70582663D01*
X141605000Y-71096119D01*
X141605000Y-71651881D01*
X141817680Y-72165337D01*
X142210663Y-72558320D01*
X142417513Y-72644000D01*
X142210663Y-72729680D01*
X141817680Y-73122663D01*
X141605000Y-73636119D01*
X141605000Y-74191881D01*
X141817680Y-74705337D01*
X142210663Y-75098320D01*
X142724119Y-75311000D01*
X143279881Y-75311000D01*
X143793337Y-75098320D01*
X144186320Y-74705337D01*
X144399000Y-74191881D01*
X144399000Y-73636119D01*
X144186320Y-73122663D01*
X143793337Y-72729680D01*
X143586487Y-72644000D01*
X143793337Y-72558320D01*
X144186320Y-72165337D01*
X144399000Y-71651881D01*
X144399000Y-71096119D01*
X144186320Y-70582663D01*
X143793337Y-70189680D01*
X143586487Y-70104000D01*
X143793337Y-70018320D01*
X144186320Y-69625337D01*
X144399000Y-69111881D01*
X144399000Y-68556119D01*
X144186320Y-68042663D01*
X143793337Y-67649680D01*
X143586487Y-67564000D01*
X143793337Y-67478320D01*
X144186320Y-67085337D01*
X144399000Y-66571881D01*
X144399000Y-66016119D01*
X144186320Y-65502663D01*
X143793337Y-65109680D01*
X143586487Y-65024000D01*
X143793337Y-64938320D01*
X144186320Y-64545337D01*
X144399000Y-64031881D01*
X144399000Y-63476119D01*
X144186320Y-62962663D01*
X143793337Y-62569680D01*
X143279881Y-62357000D01*
X142724119Y-62357000D01*
X142210663Y-62569680D01*
X141817680Y-62962663D01*
X141605000Y-63476119D01*
X122555000Y-63476119D01*
X122342320Y-62962663D01*
X121949337Y-62569680D01*
X121435881Y-62357000D01*
X120880119Y-62357000D01*
X120366663Y-62569680D01*
X119973680Y-62962663D01*
X119761000Y-63476119D01*
X117525000Y-63476119D01*
X117525000Y-61444119D01*
X134747000Y-61444119D01*
X134747000Y-61999881D01*
X134959680Y-62513337D01*
X135352663Y-62906320D01*
X135866119Y-63119000D01*
X136421881Y-63119000D01*
X136935337Y-62906320D01*
X137328320Y-62513337D01*
X137541000Y-61999881D01*
X137541000Y-61444119D01*
X137328320Y-60930663D01*
X136935337Y-60537680D01*
X136421881Y-60325000D01*
X135866119Y-60325000D01*
X135352663Y-60537680D01*
X134959680Y-60930663D01*
X134747000Y-61444119D01*
X117525000Y-61444119D01*
X117525000Y-54078119D01*
X124079000Y-54078119D01*
X124079000Y-54633881D01*
X124291680Y-55147337D01*
X124684663Y-55540320D01*
X125198119Y-55753000D01*
X125753881Y-55753000D01*
X126267337Y-55540320D01*
X126660320Y-55147337D01*
X126873000Y-54633881D01*
X126873000Y-54078119D01*
X129159000Y-54078119D01*
X129159000Y-54633881D01*
X129371680Y-55147337D01*
X129764663Y-55540320D01*
X130278119Y-55753000D01*
X130833881Y-55753000D01*
X131347337Y-55540320D01*
X131740320Y-55147337D01*
X131953000Y-54633881D01*
X131953000Y-54078119D01*
X131740320Y-53564663D01*
X131347337Y-53171680D01*
X130833881Y-52959000D01*
X130278119Y-52959000D01*
X129764663Y-53171680D01*
X129371680Y-53564663D01*
X129159000Y-54078119D01*
X126873000Y-54078119D01*
X126660320Y-53564663D01*
X126267337Y-53171680D01*
X125753881Y-52959000D01*
X125198119Y-52959000D01*
X124684663Y-53171680D01*
X124291680Y-53564663D01*
X124079000Y-54078119D01*
X117525000Y-54078119D01*
X117525000Y-52616567D01*
X132641000Y-52616567D01*
X132641000Y-53555433D01*
X133000289Y-54422833D01*
X133664167Y-55086711D01*
X134531567Y-55446000D01*
X135470433Y-55446000D01*
X136337833Y-55086711D01*
X137001711Y-54422833D01*
X137361000Y-53555433D01*
X137361000Y-52616567D01*
X137359344Y-52612567D01*
X137469000Y-52612567D01*
X137469000Y-53551433D01*
X137828289Y-54418833D01*
X138492167Y-55082711D01*
X139359567Y-55442000D01*
X140298433Y-55442000D01*
X141165833Y-55082711D01*
X141829711Y-54418833D01*
X142189000Y-53551433D01*
X142189000Y-52612567D01*
X141829711Y-51745167D01*
X141165833Y-51081289D01*
X140298433Y-50722000D01*
X139359567Y-50722000D01*
X138492167Y-51081289D01*
X137828289Y-51745167D01*
X137469000Y-52612567D01*
X137359344Y-52612567D01*
X137001711Y-51749167D01*
X136337833Y-51085289D01*
X135470433Y-50726000D01*
X134531567Y-50726000D01*
X133664167Y-51085289D01*
X133000289Y-51749167D01*
X132641000Y-52616567D01*
X117525000Y-52616567D01*
X117525000Y-51097101D01*
X117588552Y-50594033D01*
X117759222Y-50162971D01*
X118031732Y-49787892D01*
X118388960Y-49492367D01*
X118808454Y-49294968D01*
X119295913Y-49201981D01*
X119390760Y-49199000D01*
X144989100Y-49199000D01*
X145446839Y-49259263D01*
X145446839Y-49259263D01*
G37*
X145446839Y-49259263D02*
X145831546Y-49418613D01*
X146161897Y-49672100D01*
X146415387Y-50002455D01*
X146574737Y-50387161D01*
X146635001Y-50844908D01*
X146635000Y-118065100D01*
X146574737Y-118522839D01*
X146415387Y-118907545D01*
X146161897Y-119237900D01*
X145831546Y-119491387D01*
X145446839Y-119650737D01*
X144989100Y-119711000D01*
X119927794Y-119711000D01*
X119345462Y-119643107D01*
X118832021Y-119456737D01*
X118375229Y-119157250D01*
X117999589Y-118760716D01*
X117725242Y-118288393D01*
X117564194Y-117756653D01*
X117525000Y-117317494D01*
X117525000Y-108055053D01*
X132333000Y-108055053D01*
X132333000Y-109318147D01*
X132816365Y-110485093D01*
X133709507Y-111378235D01*
X134876453Y-111861600D01*
X136139547Y-111861600D01*
X137306493Y-111378235D01*
X138199635Y-110485093D01*
X138683000Y-109318147D01*
X138683000Y-108055053D01*
X138199635Y-106888107D01*
X137306493Y-105994965D01*
X136139547Y-105511600D01*
X134876453Y-105511600D01*
X133709507Y-105994965D01*
X132816365Y-106888107D01*
X132333000Y-108055053D01*
X117525000Y-108055053D01*
X117525000Y-86336119D01*
X119761000Y-86336119D01*
X119761000Y-86891881D01*
X119973680Y-87405337D01*
X120366663Y-87798320D01*
X120573513Y-87884000D01*
X120366663Y-87969680D01*
X119973680Y-88362663D01*
X119761000Y-88876119D01*
X119761000Y-89431881D01*
X119973680Y-89945337D01*
X120366663Y-90338320D01*
X120573513Y-90424000D01*
X120366663Y-90509680D01*
X119973680Y-90902663D01*
X119761000Y-91416119D01*
X119761000Y-91971881D01*
X119973680Y-92485337D01*
X120366663Y-92878320D01*
X120573513Y-92964000D01*
X120366663Y-93049680D01*
X119973680Y-93442663D01*
X119761000Y-93956119D01*
X119761000Y-94511881D01*
X119973680Y-95025337D01*
X120366663Y-95418320D01*
X120573513Y-95504000D01*
X120366663Y-95589680D01*
X119973680Y-95982663D01*
X119761000Y-96496119D01*
X119761000Y-97051881D01*
X119973680Y-97565337D01*
X120366663Y-97958320D01*
X120573513Y-98044000D01*
X120366663Y-98129680D01*
X119973680Y-98522663D01*
X119761000Y-99036119D01*
X119761000Y-99591881D01*
X119973680Y-100105337D01*
X120366663Y-100498320D01*
X120880119Y-100711000D01*
X121435881Y-100711000D01*
X121949337Y-100498320D01*
X122342320Y-100105337D01*
X122555000Y-99591881D01*
X122555000Y-99036119D01*
X122342320Y-98522663D01*
X121949337Y-98129680D01*
X121742487Y-98044000D01*
X121949337Y-97958320D01*
X122342320Y-97565337D01*
X122555000Y-97051881D01*
X122555000Y-96496119D01*
X122342320Y-95982663D01*
X121949337Y-95589680D01*
X121742487Y-95504000D01*
X121949337Y-95418320D01*
X122342320Y-95025337D01*
X122555000Y-94511881D01*
X122555000Y-93956119D01*
X122342320Y-93442663D01*
X121949337Y-93049680D01*
X121742487Y-92964000D01*
X121949337Y-92878320D01*
X122342320Y-92485337D01*
X122555000Y-91971881D01*
X122555000Y-91416119D01*
X122342320Y-90902663D01*
X121949337Y-90509680D01*
X121742487Y-90424000D01*
X121949337Y-90338320D01*
X122342320Y-89945337D01*
X122555000Y-89431881D01*
X122555000Y-88876119D01*
X122342320Y-88362663D01*
X121949337Y-87969680D01*
X121742487Y-87884000D01*
X121949337Y-87798320D01*
X122342320Y-87405337D01*
X122555000Y-86891881D01*
X122555000Y-86336119D01*
X122342320Y-85822663D01*
X121949337Y-85429680D01*
X121435881Y-85217000D01*
X120880119Y-85217000D01*
X120366663Y-85429680D01*
X119973680Y-85822663D01*
X119761000Y-86336119D01*
X117525000Y-86336119D01*
X117525000Y-63476119D01*
X119761000Y-63476119D01*
X119761000Y-64031881D01*
X119973680Y-64545337D01*
X120366663Y-64938320D01*
X120573513Y-65024000D01*
X120366663Y-65109680D01*
X119973680Y-65502663D01*
X119761000Y-66016119D01*
X119761000Y-66571881D01*
X119973680Y-67085337D01*
X120366663Y-67478320D01*
X120573513Y-67564000D01*
X120366663Y-67649680D01*
X119973680Y-68042663D01*
X119761000Y-68556119D01*
X119761000Y-69111881D01*
X119973680Y-69625337D01*
X120366663Y-70018320D01*
X120573513Y-70104000D01*
X120366663Y-70189680D01*
X119973680Y-70582663D01*
X119761000Y-71096119D01*
X119761000Y-71651881D01*
X119973680Y-72165337D01*
X120366663Y-72558320D01*
X120573513Y-72644000D01*
X120366663Y-72729680D01*
X119973680Y-73122663D01*
X119761000Y-73636119D01*
X119761000Y-74191881D01*
X119973680Y-74705337D01*
X120366663Y-75098320D01*
X120573513Y-75184000D01*
X120366663Y-75269680D01*
X119973680Y-75662663D01*
X119761000Y-76176119D01*
X119761000Y-76731881D01*
X119973680Y-77245337D01*
X120366663Y-77638320D01*
X120573513Y-77724000D01*
X120366663Y-77809680D01*
X119973680Y-78202663D01*
X119761000Y-78716119D01*
X119761000Y-79271881D01*
X119973680Y-79785337D01*
X120366663Y-80178320D01*
X120573513Y-80264000D01*
X120366663Y-80349680D01*
X119973680Y-80742663D01*
X119761000Y-81256119D01*
X119761000Y-81811881D01*
X119973680Y-82325337D01*
X120366663Y-82718320D01*
X120880119Y-82931000D01*
X121435881Y-82931000D01*
X121949337Y-82718320D01*
X122342320Y-82325337D01*
X122555000Y-81811881D01*
X122555000Y-81256119D01*
X122342320Y-80742663D01*
X121949337Y-80349680D01*
X121742487Y-80264000D01*
X121949337Y-80178320D01*
X122342320Y-79785337D01*
X122555000Y-79271881D01*
X122555000Y-78716119D01*
X141605000Y-78716119D01*
X141605000Y-79271881D01*
X141817680Y-79785337D01*
X142210663Y-80178320D01*
X142417513Y-80264000D01*
X142210663Y-80349680D01*
X141817680Y-80742663D01*
X141605000Y-81256119D01*
X141605000Y-81811881D01*
X141817680Y-82325337D01*
X142210663Y-82718320D01*
X142417513Y-82804000D01*
X142210663Y-82889680D01*
X141817680Y-83282663D01*
X141605000Y-83796119D01*
X141605000Y-84351881D01*
X141817680Y-84865337D01*
X142210663Y-85258320D01*
X142417513Y-85344000D01*
X142210663Y-85429680D01*
X141817680Y-85822663D01*
X141605000Y-86336119D01*
X141605000Y-86891881D01*
X141817680Y-87405337D01*
X142210663Y-87798320D01*
X142417513Y-87884000D01*
X142210663Y-87969680D01*
X141817680Y-88362663D01*
X141605000Y-88876119D01*
X141605000Y-89431881D01*
X141817680Y-89945337D01*
X142210663Y-90338320D01*
X142417513Y-90424000D01*
X142210663Y-90509680D01*
X141817680Y-90902663D01*
X141605000Y-91416119D01*
X141605000Y-91971881D01*
X141817680Y-92485337D01*
X142210663Y-92878320D01*
X142417513Y-92964000D01*
X142210663Y-93049680D01*
X141817680Y-93442663D01*
X141605000Y-93956119D01*
X141605000Y-94511881D01*
X141817680Y-95025337D01*
X142210663Y-95418320D01*
X142417513Y-95504000D01*
X142210663Y-95589680D01*
X141817680Y-95982663D01*
X141605000Y-96496119D01*
X141605000Y-97051881D01*
X141817680Y-97565337D01*
X142210663Y-97958320D01*
X142417513Y-98044000D01*
X142210663Y-98129680D01*
X141817680Y-98522663D01*
X141605000Y-99036119D01*
X141605000Y-99591881D01*
X141817680Y-100105337D01*
X142210663Y-100498320D01*
X142724119Y-100711000D01*
X143279881Y-100711000D01*
X143793337Y-100498320D01*
X144186320Y-100105337D01*
X144399000Y-99591881D01*
X144399000Y-99036119D01*
X144186320Y-98522663D01*
X143793337Y-98129680D01*
X143586487Y-98044000D01*
X143793337Y-97958320D01*
X144186320Y-97565337D01*
X144399000Y-97051881D01*
X144399000Y-96496119D01*
X144186320Y-95982663D01*
X143793337Y-95589680D01*
X143586487Y-95504000D01*
X143793337Y-95418320D01*
X144186320Y-95025337D01*
X144399000Y-94511881D01*
X144399000Y-93956119D01*
X144186320Y-93442663D01*
X143793337Y-93049680D01*
X143586487Y-92964000D01*
X143793337Y-92878320D01*
X144186320Y-92485337D01*
X144399000Y-91971881D01*
X144399000Y-91416119D01*
X144186320Y-90902663D01*
X143793337Y-90509680D01*
X143586487Y-90424000D01*
X143793337Y-90338320D01*
X144186320Y-89945337D01*
X144399000Y-89431881D01*
X144399000Y-88876119D01*
X144186320Y-88362663D01*
X143793337Y-87969680D01*
X143586487Y-87884000D01*
X143793337Y-87798320D01*
X144186320Y-87405337D01*
X144399000Y-86891881D01*
X144399000Y-86336119D01*
X144186320Y-85822663D01*
X143793337Y-85429680D01*
X143586487Y-85344000D01*
X143793337Y-85258320D01*
X144186320Y-84865337D01*
X144399000Y-84351881D01*
X144399000Y-83796119D01*
X144186320Y-83282663D01*
X143793337Y-82889680D01*
X143586487Y-82804000D01*
X143793337Y-82718320D01*
X144186320Y-82325337D01*
X144399000Y-81811881D01*
X144399000Y-81256119D01*
X144186320Y-80742663D01*
X143793337Y-80349680D01*
X143586487Y-80264000D01*
X143793337Y-80178320D01*
X144186320Y-79785337D01*
X144399000Y-79271881D01*
X144399000Y-78716119D01*
X144186320Y-78202663D01*
X143793337Y-77809680D01*
X143279881Y-77597000D01*
X142724119Y-77597000D01*
X142210663Y-77809680D01*
X141817680Y-78202663D01*
X141605000Y-78716119D01*
X122555000Y-78716119D01*
X122342320Y-78202663D01*
X121949337Y-77809680D01*
X121742487Y-77724000D01*
X121949337Y-77638320D01*
X122342320Y-77245337D01*
X122555000Y-76731881D01*
X122555000Y-76176119D01*
X122342320Y-75662663D01*
X121949337Y-75269680D01*
X121742487Y-75184000D01*
X121949337Y-75098320D01*
X122342320Y-74705337D01*
X122555000Y-74191881D01*
X122555000Y-73636119D01*
X122342320Y-73122663D01*
X121949337Y-72729680D01*
X121742487Y-72644000D01*
X121949337Y-72558320D01*
X122342320Y-72165337D01*
X122555000Y-71651881D01*
X122555000Y-71096119D01*
X122342320Y-70582663D01*
X121949337Y-70189680D01*
X121742487Y-70104000D01*
X121949337Y-70018320D01*
X122342320Y-69625337D01*
X122555000Y-69111881D01*
X122555000Y-68556119D01*
X122342320Y-68042663D01*
X121949337Y-67649680D01*
X121742487Y-67564000D01*
X121949337Y-67478320D01*
X122342320Y-67085337D01*
X122555000Y-66571881D01*
X122555000Y-66016119D01*
X122342320Y-65502663D01*
X121949337Y-65109680D01*
X121742487Y-65024000D01*
X121949337Y-64938320D01*
X122342320Y-64545337D01*
X122555000Y-64031881D01*
X122555000Y-63476119D01*
X141605000Y-63476119D01*
X141605000Y-64031881D01*
X141817680Y-64545337D01*
X142210663Y-64938320D01*
X142417513Y-65024000D01*
X142210663Y-65109680D01*
X141817680Y-65502663D01*
X141605000Y-66016119D01*
X141605000Y-66571881D01*
X141817680Y-67085337D01*
X142210663Y-67478320D01*
X142417513Y-67564000D01*
X142210663Y-67649680D01*
X141817680Y-68042663D01*
X141605000Y-68556119D01*
X141605000Y-69111881D01*
X141817680Y-69625337D01*
X142210663Y-70018320D01*
X142417513Y-70104000D01*
X142210663Y-70189680D01*
X141817680Y-70582663D01*
X141605000Y-71096119D01*
X141605000Y-71651881D01*
X141817680Y-72165337D01*
X142210663Y-72558320D01*
X142417513Y-72644000D01*
X142210663Y-72729680D01*
X141817680Y-73122663D01*
X141605000Y-73636119D01*
X141605000Y-74191881D01*
X141817680Y-74705337D01*
X142210663Y-75098320D01*
X142724119Y-75311000D01*
X143279881Y-75311000D01*
X143793337Y-75098320D01*
X144186320Y-74705337D01*
X144399000Y-74191881D01*
X144399000Y-73636119D01*
X144186320Y-73122663D01*
X143793337Y-72729680D01*
X143586487Y-72644000D01*
X143793337Y-72558320D01*
X144186320Y-72165337D01*
X144399000Y-71651881D01*
X144399000Y-71096119D01*
X144186320Y-70582663D01*
X143793337Y-70189680D01*
X143586487Y-70104000D01*
X143793337Y-70018320D01*
X144186320Y-69625337D01*
X144399000Y-69111881D01*
X144399000Y-68556119D01*
X144186320Y-68042663D01*
X143793337Y-67649680D01*
X143586487Y-67564000D01*
X143793337Y-67478320D01*
X144186320Y-67085337D01*
X144399000Y-66571881D01*
X144399000Y-66016119D01*
X144186320Y-65502663D01*
X143793337Y-65109680D01*
X143586487Y-65024000D01*
X143793337Y-64938320D01*
X144186320Y-64545337D01*
X144399000Y-64031881D01*
X144399000Y-63476119D01*
X144186320Y-62962663D01*
X143793337Y-62569680D01*
X143279881Y-62357000D01*
X142724119Y-62357000D01*
X142210663Y-62569680D01*
X141817680Y-62962663D01*
X141605000Y-63476119D01*
X122555000Y-63476119D01*
X122342320Y-62962663D01*
X121949337Y-62569680D01*
X121435881Y-62357000D01*
X120880119Y-62357000D01*
X120366663Y-62569680D01*
X119973680Y-62962663D01*
X119761000Y-63476119D01*
X117525000Y-63476119D01*
X117525000Y-61444119D01*
X134747000Y-61444119D01*
X134747000Y-61999881D01*
X134959680Y-62513337D01*
X135352663Y-62906320D01*
X135866119Y-63119000D01*
X136421881Y-63119000D01*
X136935337Y-62906320D01*
X137328320Y-62513337D01*
X137541000Y-61999881D01*
X137541000Y-61444119D01*
X137328320Y-60930663D01*
X136935337Y-60537680D01*
X136421881Y-60325000D01*
X135866119Y-60325000D01*
X135352663Y-60537680D01*
X134959680Y-60930663D01*
X134747000Y-61444119D01*
X117525000Y-61444119D01*
X117525000Y-54078119D01*
X124079000Y-54078119D01*
X124079000Y-54633881D01*
X124291680Y-55147337D01*
X124684663Y-55540320D01*
X125198119Y-55753000D01*
X125753881Y-55753000D01*
X126267337Y-55540320D01*
X126660320Y-55147337D01*
X126873000Y-54633881D01*
X126873000Y-54078119D01*
X129159000Y-54078119D01*
X129159000Y-54633881D01*
X129371680Y-55147337D01*
X129764663Y-55540320D01*
X130278119Y-55753000D01*
X130833881Y-55753000D01*
X131347337Y-55540320D01*
X131740320Y-55147337D01*
X131953000Y-54633881D01*
X131953000Y-54078119D01*
X131740320Y-53564663D01*
X131347337Y-53171680D01*
X130833881Y-52959000D01*
X130278119Y-52959000D01*
X129764663Y-53171680D01*
X129371680Y-53564663D01*
X129159000Y-54078119D01*
X126873000Y-54078119D01*
X126660320Y-53564663D01*
X126267337Y-53171680D01*
X125753881Y-52959000D01*
X125198119Y-52959000D01*
X124684663Y-53171680D01*
X124291680Y-53564663D01*
X124079000Y-54078119D01*
X117525000Y-54078119D01*
X117525000Y-52616567D01*
X132641000Y-52616567D01*
X132641000Y-53555433D01*
X133000289Y-54422833D01*
X133664167Y-55086711D01*
X134531567Y-55446000D01*
X135470433Y-55446000D01*
X136337833Y-55086711D01*
X137001711Y-54422833D01*
X137361000Y-53555433D01*
X137361000Y-52616567D01*
X137359344Y-52612567D01*
X137469000Y-52612567D01*
X137469000Y-53551433D01*
X137828289Y-54418833D01*
X138492167Y-55082711D01*
X139359567Y-55442000D01*
X140298433Y-55442000D01*
X141165833Y-55082711D01*
X141829711Y-54418833D01*
X142189000Y-53551433D01*
X142189000Y-52612567D01*
X141829711Y-51745167D01*
X141165833Y-51081289D01*
X140298433Y-50722000D01*
X139359567Y-50722000D01*
X138492167Y-51081289D01*
X137828289Y-51745167D01*
X137469000Y-52612567D01*
X137359344Y-52612567D01*
X137001711Y-51749167D01*
X136337833Y-51085289D01*
X135470433Y-50726000D01*
X134531567Y-50726000D01*
X133664167Y-51085289D01*
X133000289Y-51749167D01*
X132641000Y-52616567D01*
X117525000Y-52616567D01*
X117525000Y-51097101D01*
X117588552Y-50594033D01*
X117759222Y-50162971D01*
X118031732Y-49787892D01*
X118388960Y-49492367D01*
X118808454Y-49294968D01*
X119295913Y-49201981D01*
X119390760Y-49199000D01*
X144989100Y-49199000D01*
X145446839Y-49259263D01*
G04 #@! TD*
M02*
